<svg id="visual" viewBox="0 0 900 600" width="900" height="600" xmlns="http://www.w3.org/2000/svg" xmlns:xlink="http://www.w3.org/1999/xlink" version="1.1"><g transform="translate(433.7236280538869 300.95168883171715)"><path d="M157.7 -191.2C189.3 -161.3 189.7 -97.4 201.5 -34.9C213.3 27.7 236.6 88.8 216.9 127.3C197.1 165.8 134.5 181.6 77.3 194.6C20.2 207.7 -31.5 218 -78.9 205.6C-126.4 193.2 -169.7 158.1 -185.1 114.9C-200.5 71.7 -187.9 20.4 -168.4 -19.3C-149 -58.9 -122.7 -86.9 -93.5 -117.3C-64.3 -147.6 -32.1 -180.3 15.4 -198.7C63 -217.1 126 -221.1 157.7 -191.2" fill="#79ffb6"></path></g></svg>