<svg id="visual" viewBox="0 0 900 600" width="900" height="600" xmlns="http://www.w3.org/2000/svg" xmlns:xlink="http://www.w3.org/1999/xlink" version="1.1"><g transform="translate(462.06556830115153 231.49824552591275)"><path d="M162.7 -192.3C212.9 -151.8 257.1 -102.5 302.9 -26.3C348.7 49.9 396.1 153 366 217.3C336 281.6 228.5 307.1 124.7 346.7C20.9 386.2 -79.3 439.8 -174.7 427.8C-270.1 415.7 -360.7 338.1 -389 245.6C-417.3 153.1 -383.5 45.7 -350.5 -48C-317.5 -141.7 -285.4 -221.8 -227.1 -260.8C-168.8 -299.9 -84.4 -297.9 -14.1 -281.2C56.2 -264.4 112.5 -232.7 162.7 -192.3" fill="#79ffb6"></path></g></svg>