<svg id="visual" viewBox="0 0 900 600" width="900" height="600" xmlns="http://www.w3.org/2000/svg" xmlns:xlink="http://www.w3.org/1999/xlink" version="1.1"><g transform="translate(561.102534024951 394.8271092193238)"><path d="M379.6 -430C470.4 -376.2 507.5 -236.1 489.8 -118.6C472.2 -1 399.8 94 325.2 154.5C250.6 215 173.9 240.9 113.4 225.6C53 210.2 8.9 153.6 -126.4 177.8C-261.7 202.1 -488.1 307.3 -606.9 269.2C-725.8 231 -737.1 49.5 -691.5 -106.8C-646 -263.2 -543.5 -394.3 -418.7 -442.2C-294 -490 -147 -454.5 -1.3 -453C144.4 -451.4 288.8 -483.9 379.6 -430" fill="#79ffb6"></path></g></svg>