<svg id="visual" viewBox="0 0 900 600" width="900" height="600" xmlns="http://www.w3.org/2000/svg" xmlns:xlink="http://www.w3.org/1999/xlink" version="1.1"><g transform="translate(405.27502243305605 251.60710633432993)"><path d="M331.9 -308.4C442.7 -302.6 553.7 -209.9 578.1 -98C602.5 13.9 540.3 144.9 434.3 177.7C328.3 210.4 178.6 144.9 69.7 179.2C-39.2 213.6 -107.4 347.8 -208.4 390.2C-309.5 432.5 -443.6 383 -481.6 290.8C-519.7 198.6 -461.7 63.7 -413.8 -49.5C-365.8 -162.6 -327.9 -254.1 -260.6 -267.5C-193.3 -281 -96.6 -216.5 7 -224.8C110.6 -233.1 221.1 -314.2 331.9 -308.4" fill="#79ffb6"></path></g></svg>