<svg id="visual" viewBox="0 0 900 600" width="900" height="600" xmlns="http://www.w3.org/2000/svg" xmlns:xlink="http://www.w3.org/1999/xlink" version="1.1"><path d="M0 338L25 346.2C50 354.3 100 370.7 150 387.7C200 404.7 250 422.3 300 426C350 429.7 400 419.3 450 402.5C500 385.7 550 362.3 600 360.5C650 358.7 700 378.3 750 391.8C800 405.3 850 412.7 875 416.3L900 420L900 601L875 601C850 601 800 601 750 601C700 601 650 601 600 601C550 601 500 601 450 601C400 601 350 601 300 601C250 601 200 601 150 601C100 601 50 601 25 601L0 601Z" fill="#58f3b1" stroke-linecap="round" stroke-linejoin="miter"></path></svg>